<?xml version="1.0" encoding="utf-8" standalone="no"?>
<!DOCTYPE svg PUBLIC "-//W3C//DTD SVG 1.1//EN"
  "http://www.w3.org/Graphics/SVG/1.1/DTD/svg11.dtd">
<!-- Created with matplotlib (https://matplotlib.org/) -->
<svg height="114.192pt" version="1.1" viewBox="0 0 432.646453 114.192" width="432.646453pt" xmlns="http://www.w3.org/2000/svg" xmlns:xlink="http://www.w3.org/1999/xlink">
 <defs>
  <style type="text/css">
*{stroke-linecap:butt;stroke-linejoin:round;}
  </style>
 </defs>
 <g id="figure_1">
  <g id="patch_1">
   <path d="M 0 114.192 
L 432.646453 114.192 
L 432.646453 0 
L 0 0 
z
" style="fill:#ffffff;"/>
  </g>
  <g id="axes_1">
   <g id="patch_2">
    <path clip-path="url(#p5dd71d2446)" d="M 20.45808 73.262304 
L 58.22352 73.262304 
Q 68.26752 73.262304 68.26752 70.767504 
L 68.26752 35.441136 
Q 68.26752 32.946336 58.22352 32.946336 
L 20.45808 32.946336 
Q 10.41408 32.946336 10.41408 35.441136 
L 10.41408 70.767504 
Q 10.41408 73.262304 20.45808 73.262304 
z
" style="fill:#f8fafc;stroke:#6b7280;stroke-linejoin:miter;stroke-width:0.9;"/>
   </g>
   <g id="patch_3">
    <path clip-path="url(#p5dd71d2446)" d="M 66.65381 53.10432 
Q 68.268893 53.10432 68.989549 53.10432 
" style="fill:none;stroke:#374151;stroke-linecap:round;stroke-width:0.8;"/>
    <path clip-path="url(#p5dd71d2446)" d="M 65.389549 51.30432 
L 68.989549 53.10432 
L 65.389549 54.90432 
L 65.389549 51.30432 
z
" style="fill:#374151;stroke:#374151;stroke-linecap:round;stroke-width:0.8;"/>
   </g>
   <g id="patch_4">
    <path clip-path="url(#p5dd71d2446)" d="M 78.71328 73.262304 
L 116.47872 73.262304 
Q 126.52272 73.262304 126.52272 70.767504 
L 126.52272 35.441136 
Q 126.52272 32.946336 116.47872 32.946336 
L 78.71328 32.946336 
Q 68.66928 32.946336 68.66928 35.441136 
L 68.66928 70.767504 
Q 68.66928 73.262304 78.71328 73.262304 
z
" style="fill:#f8fafc;stroke:#6b7280;stroke-linejoin:miter;stroke-width:0.9;"/>
   </g>
   <g id="patch_5">
    <path clip-path="url(#p5dd71d2446)" d="M 124.90901 53.10432 
Q 126.524093 53.10432 127.244749 53.10432 
" style="fill:none;stroke:#374151;stroke-linecap:round;stroke-width:0.8;"/>
    <path clip-path="url(#p5dd71d2446)" d="M 123.644749 51.30432 
L 127.244749 53.10432 
L 123.644749 54.90432 
L 123.644749 51.30432 
z
" style="fill:#374151;stroke:#374151;stroke-linecap:round;stroke-width:0.8;"/>
   </g>
   <g id="patch_6">
    <path clip-path="url(#p5dd71d2446)" d="M 136.96848 73.262304 
L 174.73392 73.262304 
Q 184.77792 73.262304 184.77792 70.767504 
L 184.77792 35.441136 
Q 184.77792 32.946336 174.73392 32.946336 
L 136.96848 32.946336 
Q 126.92448 32.946336 126.92448 35.441136 
L 126.92448 70.767504 
Q 126.92448 73.262304 136.96848 73.262304 
z
" style="fill:#f8fafc;stroke:#6b7280;stroke-linejoin:miter;stroke-width:0.9;"/>
   </g>
   <g id="patch_7">
    <path clip-path="url(#p5dd71d2446)" d="M 183.16421 53.10432 
Q 184.779293 53.10432 185.499949 53.10432 
" style="fill:none;stroke:#374151;stroke-linecap:round;stroke-width:0.8;"/>
    <path clip-path="url(#p5dd71d2446)" d="M 181.899949 51.30432 
L 185.499949 53.10432 
L 181.899949 54.90432 
L 181.899949 51.30432 
z
" style="fill:#374151;stroke:#374151;stroke-linecap:round;stroke-width:0.8;"/>
   </g>
   <g id="patch_8">
    <path clip-path="url(#p5dd71d2446)" d="M 195.22368 73.262304 
L 232.98912 73.262304 
Q 243.03312 73.262304 243.03312 70.767504 
L 243.03312 35.441136 
Q 243.03312 32.946336 232.98912 32.946336 
L 195.22368 32.946336 
Q 185.17968 32.946336 185.17968 35.441136 
L 185.17968 70.767504 
Q 185.17968 73.262304 195.22368 73.262304 
z
" style="fill:#f8fafc;stroke:#6b7280;stroke-linejoin:miter;stroke-width:0.9;"/>
   </g>
   <g id="patch_9">
    <path clip-path="url(#p5dd71d2446)" d="M 241.41941 53.10432 
Q 243.034493 53.10432 243.755149 53.10432 
" style="fill:none;stroke:#374151;stroke-linecap:round;stroke-width:0.8;"/>
    <path clip-path="url(#p5dd71d2446)" d="M 240.155149 51.30432 
L 243.755149 53.10432 
L 240.155149 54.90432 
L 240.155149 51.30432 
z
" style="fill:#374151;stroke:#374151;stroke-linecap:round;stroke-width:0.8;"/>
   </g>
   <g id="patch_10">
    <path clip-path="url(#p5dd71d2446)" d="M 253.47888 73.262304 
L 291.24432 73.262304 
Q 301.28832 73.262304 301.28832 70.767504 
L 301.28832 35.441136 
Q 301.28832 32.946336 291.24432 32.946336 
L 253.47888 32.946336 
Q 243.43488 32.946336 243.43488 35.441136 
L 243.43488 70.767504 
Q 243.43488 73.262304 253.47888 73.262304 
z
" style="fill:#f8fafc;stroke:#6b7280;stroke-linejoin:miter;stroke-width:0.9;"/>
   </g>
   <g id="patch_11">
    <path clip-path="url(#p5dd71d2446)" d="M 299.67461 53.10432 
Q 301.289693 53.10432 302.010349 53.10432 
" style="fill:none;stroke:#374151;stroke-linecap:round;stroke-width:0.8;"/>
    <path clip-path="url(#p5dd71d2446)" d="M 298.410349 51.30432 
L 302.010349 53.10432 
L 298.410349 54.90432 
L 298.410349 51.30432 
z
" style="fill:#374151;stroke:#374151;stroke-linecap:round;stroke-width:0.8;"/>
   </g>
   <g id="patch_12">
    <path clip-path="url(#p5dd71d2446)" d="M 311.73408 73.262304 
L 349.49952 73.262304 
Q 359.54352 73.262304 359.54352 70.767504 
L 359.54352 35.441136 
Q 359.54352 32.946336 349.49952 32.946336 
L 311.73408 32.946336 
Q 301.69008 32.946336 301.69008 35.441136 
L 301.69008 70.767504 
Q 301.69008 73.262304 311.73408 73.262304 
z
" style="fill:#eef6f3;stroke:#256f68;stroke-linejoin:miter;stroke-width:0.9;"/>
   </g>
   <g id="patch_13">
    <path clip-path="url(#p5dd71d2446)" d="M 357.92981 53.10432 
Q 359.544893 53.10432 360.265549 53.10432 
" style="fill:none;stroke:#374151;stroke-linecap:round;stroke-width:0.8;"/>
    <path clip-path="url(#p5dd71d2446)" d="M 356.665549 51.30432 
L 360.265549 53.10432 
L 356.665549 54.90432 
L 356.665549 51.30432 
z
" style="fill:#374151;stroke:#374151;stroke-linecap:round;stroke-width:0.8;"/>
   </g>
   <g id="patch_14">
    <path clip-path="url(#p5dd71d2446)" d="M 369.98928 73.262304 
L 407.75472 73.262304 
Q 417.79872 73.262304 417.79872 70.767504 
L 417.79872 35.441136 
Q 417.79872 32.946336 407.75472 32.946336 
L 369.98928 32.946336 
Q 359.94528 32.946336 359.94528 35.441136 
L 359.94528 70.767504 
Q 359.94528 73.262304 369.98928 73.262304 
z
" style="fill:#eef6f3;stroke:#256f68;stroke-linejoin:miter;stroke-width:0.9;"/>
   </g>
   <g id="text_1">
    <text style="font-family:Arial;font-size:7px;font-style:normal;font-weight:normal;text-anchor:middle;" transform="rotate(-0, 39.3408, 54.91557)" x="39.3408" y="54.91557">Leaf images</text>
   </g>
   <g id="text_2">
    <text style="font-family:Arial;font-size:7px;font-style:normal;font-weight:normal;" transform="translate(81.64475 51.212023)">ConvNeXt</text>
    <text style="font-family:Arial;font-size:7px;font-style:normal;font-weight:normal;" transform="translate(72.499906 58.615836)">2048-D features</text>
   </g>
   <g id="text_3">
    <text style="font-family:Arial;font-size:7px;font-style:normal;font-weight:normal;" transform="translate(145.738934 51.212023)">UMAP</text>
    <text style="font-family:Arial;font-size:7px;font-style:normal;font-weight:normal;" transform="translate(146.319169 58.615836)">100-D</text>
   </g>
   <g id="text_4">
    <text style="font-family:Arial;font-size:7px;font-style:normal;font-weight:normal;" transform="translate(201.267416 47.469101)">KMeans</text>
    <text style="font-family:Arial;font-size:7px;font-style:normal;font-weight:normal;" transform="translate(206.132416 54.872914)">Birch</text>
    <text style="font-family:Arial;font-size:7px;font-style:normal;font-weight:normal;" transform="translate(191.735384 62.276726)">Agglomerative</text>
   </g>
   <g id="text_5">
    <text style="font-family:Arial;font-size:7px;font-style:normal;font-weight:normal;" transform="translate(256.212928 51.129992)">Hungarian</text>
    <text style="font-family:Arial;font-size:7px;font-style:normal;font-weight:normal;" transform="translate(245.906522 58.615836)">cluster alignment</text>
   </g>
   <g id="text_6">
    <text style="font-family:Arial;font-size:7px;font-style:normal;font-weight:normal;" transform="translate(314.662816 51.213664)">any2 / all3</text>
    <text style="font-family:Arial;font-size:7px;font-style:normal;font-weight:normal;" transform="translate(313.885159 58.699508)">consensus</text>
   </g>
   <g id="text_7">
    <text style="font-family:Arial;font-size:7px;font-style:normal;font-weight:normal;" transform="translate(375.060672 51.171008)">Post-hoc</text>
    <text style="font-family:Arial;font-size:7px;font-style:normal;font-weight:normal;" transform="translate(352.297547 58.57482)">many-to-one evaluation</text>
   </g>
   <g id="text_8">
    <text style="fill:#4b5563;font-family:Arial;font-size:7px;font-style:normal;font-weight:normal;text-anchor:middle;" transform="rotate(-0, 208.08, 96.82821)" x="208.08" y="96.82821">Disease labels are used only after all clustering and rejection decisions are fixed.</text>
   </g>
  </g>
 </g>
 <defs>
  <clipPath id="p5dd71d2446">
   <rect height="99.792" width="401.76" x="7.2" y="7.2"/>
  </clipPath>
 </defs>
</svg>
