<?xml version="1.0" encoding="utf-8" standalone="no"?>
<!DOCTYPE svg PUBLIC "-//W3C//DTD SVG 1.1//EN"
  "http://www.w3.org/Graphics/SVG/1.1/DTD/svg11.dtd">
<!-- Created with matplotlib (https://matplotlib.org/) -->
<svg height="193.3265pt" version="1.1" viewBox="0 0 217.913125 193.3265" width="217.913125pt" xmlns="http://www.w3.org/2000/svg" xmlns:xlink="http://www.w3.org/1999/xlink">
 <defs>
  <style type="text/css">
*{stroke-linecap:butt;stroke-linejoin:round;}
  </style>
 </defs>
 <g id="figure_1">
  <g id="patch_1">
   <path d="M 0 193.3265 
L 217.913125 193.3265 
L 217.913125 0 
L 0 0 
z
" style="fill:#ffffff;"/>
  </g>
  <g id="axes_1">
   <g id="patch_2">
    <path d="M 32.153125 163.07025 
L 210.713125 163.07025 
L 210.713125 18.92625 
L 32.153125 18.92625 
z
" style="fill:#ffffff;"/>
   </g>
   <g id="PathCollection_1">
    <defs>
     <path d="M 0 2.828427 
C 0.750108 2.828427 1.469594 2.530406 2 2 
C 2.530406 1.469594 2.828427 0.750108 2.828427 0 
C 2.828427 -0.750108 2.530406 -1.469594 2 -2 
C 1.469594 -2.530406 0.750108 -2.828427 0 -2.828427 
C -0.750108 -2.828427 -1.469594 -2.530406 -2 -2 
C -2.530406 -1.469594 -2.828427 -0.750108 -2.828427 0 
C -2.828427 0.750108 -2.530406 1.469594 -2 2 
C -1.469594 2.530406 -0.750108 2.828427 0 2.828427 
z
" id="mf56b4b9ea6" style="stroke:#ffffff;stroke-width:0.5;"/>
    </defs>
    <g clip-path="url(#p92b4261b63)">
     <use style="fill:#4c78a8;stroke:#ffffff;stroke-width:0.5;" x="200.560597" xlink:href="#mf56b4b9ea6" y="156.367"/>
    </g>
   </g>
   <g id="PathCollection_2">
    <defs>
     <path d="M -2.828427 2.828427 
L 2.828427 2.828427 
L 2.828427 -2.828427 
L -2.828427 -2.828427 
z
" id="m2ebd4b0ffd" style="stroke:#ffffff;stroke-width:0.5;"/>
    </defs>
    <g clip-path="url(#p92b4261b63)">
     <use style="fill:#4c78a8;stroke:#ffffff;stroke-width:0.5;" x="194.338849" xlink:href="#m2ebd4b0ffd" y="156.362903"/>
    </g>
   </g>
   <g id="PathCollection_3">
    <defs>
     <path d="M 0 -2.828427 
L -2.828427 2.828427 
L 2.828427 2.828427 
z
" id="m037cb0d3ce" style="stroke:#ffffff;stroke-width:0.5;"/>
    </defs>
    <g clip-path="url(#p92b4261b63)">
     <use style="fill:#4c78a8;stroke:#ffffff;stroke-width:0.5;" x="43.066636" xlink:href="#m037cb0d3ce" y="156.230334"/>
    </g>
   </g>
   <g id="PathCollection_4">
    <defs>
     <path d="M 0 4 
L 4 0 
L 0 -4 
L -4 0 
z
" id="m6f2a2fa5a5" style="stroke:#ffffff;stroke-width:0.5;"/>
    </defs>
    <g clip-path="url(#p92b4261b63)">
     <use style="fill:#4c78a8;stroke:#ffffff;stroke-width:0.5;" x="43.066636" xlink:href="#m6f2a2fa5a5" y="156.271362"/>
    </g>
   </g>
   <g id="PathCollection_5">
    <defs>
     <path d="M 0 2.828427 
C 0.750108 2.828427 1.469594 2.530406 2 2 
C 2.530406 1.469594 2.828427 0.750108 2.828427 0 
C 2.828427 -0.750108 2.530406 -1.469594 2 -2 
C 1.469594 -2.530406 0.750108 -2.828427 0 -2.828427 
C -0.750108 -2.828427 -1.469594 -2.530406 -2 -2 
C -2.530406 -1.469594 -2.828427 -0.750108 -2.828427 0 
C -2.828427 0.750108 -2.530406 1.469594 -2 2 
C -1.469594 2.530406 -0.750108 2.828427 0 2.828427 
z
" id="m11c7a1509f" style="stroke:#ffffff;stroke-width:0.5;"/>
    </defs>
    <g clip-path="url(#p92b4261b63)">
     <use style="fill:#f58518;stroke:#ffffff;stroke-width:0.5;" x="200.560597" xlink:href="#m11c7a1509f" y="26.943094"/>
    </g>
   </g>
   <g id="PathCollection_6">
    <defs>
     <path d="M -2.828427 2.828427 
L 2.828427 2.828427 
L 2.828427 -2.828427 
L -2.828427 -2.828427 
z
" id="m46dd13b149" style="stroke:#ffffff;stroke-width:0.5;"/>
    </defs>
    <g clip-path="url(#p92b4261b63)">
     <use style="fill:#f58518;stroke:#ffffff;stroke-width:0.5;" x="199.295135" xlink:href="#m46dd13b149" y="27.492026"/>
    </g>
   </g>
   <g id="PathCollection_7">
    <defs>
     <path d="M 0 -2.828427 
L -2.828427 2.828427 
L 2.828427 2.828427 
z
" id="mc2bfecd54b" style="stroke:#ffffff;stroke-width:0.5;"/>
    </defs>
    <g clip-path="url(#p92b4261b63)">
     <use style="fill:#f58518;stroke:#ffffff;stroke-width:0.5;" x="131.126688" xlink:href="#mc2bfecd54b" y="41.79188"/>
    </g>
   </g>
   <g id="PathCollection_8">
    <defs>
     <path d="M 0 4 
L 4 0 
L 0 -4 
L -4 0 
z
" id="m790dfb6b06" style="stroke:#ffffff;stroke-width:0.5;"/>
    </defs>
    <g clip-path="url(#p92b4261b63)">
     <use style="fill:#f58518;stroke:#ffffff;stroke-width:0.5;" x="131.126688" xlink:href="#m790dfb6b06" y="57.560535"/>
    </g>
   </g>
   <g id="PathCollection_9">
    <defs>
     <path d="M 0 2.828427 
C 0.750108 2.828427 1.469594 2.530406 2 2 
C 2.530406 1.469594 2.828427 0.750108 2.828427 0 
C 2.828427 -0.750108 2.530406 -1.469594 2 -2 
C 1.469594 -2.530406 0.750108 -2.828427 0 -2.828427 
C -0.750108 -2.828427 -1.469594 -2.530406 -2 -2 
C -2.530406 -1.469594 -2.828427 -0.750108 -2.828427 0 
C -2.828427 0.750108 -2.530406 1.469594 -2 2 
C -1.469594 2.530406 -0.750108 2.828427 0 2.828427 
z
" id="mef804b118c" style="stroke:#ffffff;stroke-width:0.5;"/>
    </defs>
    <g clip-path="url(#p92b4261b63)">
     <use style="fill:#54a24b;stroke:#ffffff;stroke-width:0.5;" x="200.560597" xlink:href="#mef804b118c" y="115.98225"/>
    </g>
   </g>
   <g id="PathCollection_10">
    <defs>
     <path d="M -2.828427 2.828427 
L 2.828427 2.828427 
L 2.828427 -2.828427 
L -2.828427 -2.828427 
z
" id="macf5830267" style="stroke:#ffffff;stroke-width:0.5;"/>
    </defs>
    <g clip-path="url(#p92b4261b63)">
     <use style="fill:#54a24b;stroke:#ffffff;stroke-width:0.5;" x="198.856273" xlink:href="#macf5830267" y="116.359335"/>
    </g>
   </g>
   <g id="PathCollection_11">
    <defs>
     <path d="M 0 -2.828427 
L -2.828427 2.828427 
L 2.828427 2.828427 
z
" id="md9dbb8977a" style="stroke:#ffffff;stroke-width:0.5;"/>
    </defs>
    <g clip-path="url(#p92b4261b63)">
     <use style="fill:#54a24b;stroke:#ffffff;stroke-width:0.5;" x="126.565135" xlink:href="#md9dbb8977a" y="124.95467"/>
    </g>
   </g>
   <g id="PathCollection_12">
    <defs>
     <path d="M 0 4 
L 4 0 
L 0 -4 
L -4 0 
z
" id="m03a6713774" style="stroke:#ffffff;stroke-width:0.5;"/>
    </defs>
    <g clip-path="url(#p92b4261b63)">
     <use style="fill:#54a24b;stroke:#ffffff;stroke-width:0.5;" x="126.565135" xlink:href="#m03a6713774" y="133.811335"/>
    </g>
   </g>
   <g id="matplotlib.axis_1">
    <g id="xtick_1">
     <g id="line2d_1">
      <path clip-path="url(#p92b4261b63)" d="M 52.701337 163.07025 
L 52.701337 18.92625 
" style="fill:none;stroke:#e5e7eb;stroke-linecap:square;stroke-width:0.6;"/>
     </g>
     <g id="line2d_2">
      <defs>
       <path d="M 0 0 
L 0 3.5 
" id="meb15630ec2" style="stroke:#000000;stroke-width:0.8;"/>
      </defs>
      <g>
       <use style="stroke:#000000;stroke-width:0.8;" x="52.701337" xlink:href="#meb15630ec2" y="163.07025"/>
      </g>
     </g>
     <g id="text_1">
      <text style="font-family:Arial;font-size:6px;font-style:normal;font-weight:normal;text-anchor:middle;" transform="rotate(-0, 52.701337, 174.364937)" x="52.701337" y="174.364937">80</text>
     </g>
    </g>
    <g id="xtick_2">
     <g id="line2d_3">
      <path clip-path="url(#p92b4261b63)" d="M 89.666152 163.07025 
L 89.666152 18.92625 
" style="fill:none;stroke:#e5e7eb;stroke-linecap:square;stroke-width:0.6;"/>
     </g>
     <g id="line2d_4">
      <g>
       <use style="stroke:#000000;stroke-width:0.8;" x="89.666152" xlink:href="#meb15630ec2" y="163.07025"/>
      </g>
     </g>
     <g id="text_2">
      <text style="font-family:Arial;font-size:6px;font-style:normal;font-weight:normal;text-anchor:middle;" transform="rotate(-0, 89.666152, 174.364937)" x="89.666152" y="174.364937">85</text>
     </g>
    </g>
    <g id="xtick_3">
     <g id="line2d_5">
      <path clip-path="url(#p92b4261b63)" d="M 126.630967 163.07025 
L 126.630967 18.92625 
" style="fill:none;stroke:#e5e7eb;stroke-linecap:square;stroke-width:0.6;"/>
     </g>
     <g id="line2d_6">
      <g>
       <use style="stroke:#000000;stroke-width:0.8;" x="126.630967" xlink:href="#meb15630ec2" y="163.07025"/>
      </g>
     </g>
     <g id="text_3">
      <text style="font-family:Arial;font-size:6px;font-style:normal;font-weight:normal;text-anchor:middle;" transform="rotate(-0, 126.630967, 174.364937)" x="126.630967" y="174.364937">90</text>
     </g>
    </g>
    <g id="xtick_4">
     <g id="line2d_7">
      <path clip-path="url(#p92b4261b63)" d="M 163.595782 163.07025 
L 163.595782 18.92625 
" style="fill:none;stroke:#e5e7eb;stroke-linecap:square;stroke-width:0.6;"/>
     </g>
     <g id="line2d_8">
      <g>
       <use style="stroke:#000000;stroke-width:0.8;" x="163.595782" xlink:href="#meb15630ec2" y="163.07025"/>
      </g>
     </g>
     <g id="text_4">
      <text style="font-family:Arial;font-size:6px;font-style:normal;font-weight:normal;text-anchor:middle;" transform="rotate(-0, 163.595782, 174.364937)" x="163.595782" y="174.364937">95</text>
     </g>
    </g>
    <g id="xtick_5">
     <g id="line2d_9">
      <path clip-path="url(#p92b4261b63)" d="M 200.560597 163.07025 
L 200.560597 18.92625 
" style="fill:none;stroke:#e5e7eb;stroke-linecap:square;stroke-width:0.6;"/>
     </g>
     <g id="line2d_10">
      <g>
       <use style="stroke:#000000;stroke-width:0.8;" x="200.560597" xlink:href="#meb15630ec2" y="163.07025"/>
      </g>
     </g>
     <g id="text_5">
      <text style="font-family:Arial;font-size:6px;font-style:normal;font-weight:normal;text-anchor:middle;" transform="rotate(-0, 200.560597, 174.364937)" x="200.560597" y="174.364937">100</text>
     </g>
    </g>
    <g id="text_6">
     <text style="font-family:Arial;font-size:7px;font-style:normal;font-weight:normal;text-anchor:middle;" transform="rotate(-0, 121.433125, 184.653219)" x="121.433125" y="184.653219">Coverage (%)</text>
    </g>
   </g>
   <g id="matplotlib.axis_2">
    <g id="ytick_1">
     <g id="line2d_11">
      <path clip-path="url(#p92b4261b63)" d="M 32.153125 156.858157 
L 210.713125 156.858157 
" style="fill:none;stroke:#e5e7eb;stroke-linecap:square;stroke-width:0.6;"/>
     </g>
     <g id="line2d_12">
      <defs>
       <path d="M 0 0 
L -3.5 0 
" id="mf1a2b28af6" style="stroke:#000000;stroke-width:0.8;"/>
      </defs>
      <g>
       <use style="stroke:#000000;stroke-width:0.8;" x="32.153125" xlink:href="#mf1a2b28af6" y="156.858157"/>
      </g>
     </g>
     <g id="text_7">
      <text style="font-family:Arial;font-size:6px;font-style:normal;font-weight:normal;text-anchor:end;" transform="rotate(-0, 25.153125, 159.005501)" x="25.153125" y="159.005501">0</text>
     </g>
    </g>
    <g id="ytick_2">
     <g id="line2d_13">
      <path clip-path="url(#p92b4261b63)" d="M 32.153125 135.446766 
L 210.713125 135.446766 
" style="fill:none;stroke:#e5e7eb;stroke-linecap:square;stroke-width:0.6;"/>
     </g>
     <g id="line2d_14">
      <g>
       <use style="stroke:#000000;stroke-width:0.8;" x="32.153125" xlink:href="#mf1a2b28af6" y="135.446766"/>
      </g>
     </g>
     <g id="text_8">
      <text style="font-family:Arial;font-size:6px;font-style:normal;font-weight:normal;text-anchor:end;" transform="rotate(-0, 25.153125, 137.59411)" x="25.153125" y="137.59411">2</text>
     </g>
    </g>
    <g id="ytick_3">
     <g id="line2d_15">
      <path clip-path="url(#p92b4261b63)" d="M 32.153125 114.035375 
L 210.713125 114.035375 
" style="fill:none;stroke:#e5e7eb;stroke-linecap:square;stroke-width:0.6;"/>
     </g>
     <g id="line2d_16">
      <g>
       <use style="stroke:#000000;stroke-width:0.8;" x="32.153125" xlink:href="#mf1a2b28af6" y="114.035375"/>
      </g>
     </g>
     <g id="text_9">
      <text style="font-family:Arial;font-size:6px;font-style:normal;font-weight:normal;text-anchor:end;" transform="rotate(-0, 25.153125, 116.182718)" x="25.153125" y="116.182718">4</text>
     </g>
    </g>
    <g id="ytick_4">
     <g id="line2d_17">
      <path clip-path="url(#p92b4261b63)" d="M 32.153125 92.623983 
L 210.713125 92.623983 
" style="fill:none;stroke:#e5e7eb;stroke-linecap:square;stroke-width:0.6;"/>
     </g>
     <g id="line2d_18">
      <g>
       <use style="stroke:#000000;stroke-width:0.8;" x="32.153125" xlink:href="#mf1a2b28af6" y="92.623983"/>
      </g>
     </g>
     <g id="text_10">
      <text style="font-family:Arial;font-size:6px;font-style:normal;font-weight:normal;text-anchor:end;" transform="rotate(-0, 25.153125, 94.771327)" x="25.153125" y="94.771327">6</text>
     </g>
    </g>
    <g id="ytick_5">
     <g id="line2d_19">
      <path clip-path="url(#p92b4261b63)" d="M 32.153125 71.212592 
L 210.713125 71.212592 
" style="fill:none;stroke:#e5e7eb;stroke-linecap:square;stroke-width:0.6;"/>
     </g>
     <g id="line2d_20">
      <g>
       <use style="stroke:#000000;stroke-width:0.8;" x="32.153125" xlink:href="#mf1a2b28af6" y="71.212592"/>
      </g>
     </g>
     <g id="text_11">
      <text style="font-family:Arial;font-size:6px;font-style:normal;font-weight:normal;text-anchor:end;" transform="rotate(-0, 25.153125, 73.359936)" x="25.153125" y="73.359936">8</text>
     </g>
    </g>
    <g id="ytick_6">
     <g id="line2d_21">
      <path clip-path="url(#p92b4261b63)" d="M 32.153125 49.801201 
L 210.713125 49.801201 
" style="fill:none;stroke:#e5e7eb;stroke-linecap:square;stroke-width:0.6;"/>
     </g>
     <g id="line2d_22">
      <g>
       <use style="stroke:#000000;stroke-width:0.8;" x="32.153125" xlink:href="#mf1a2b28af6" y="49.801201"/>
      </g>
     </g>
     <g id="text_12">
      <text style="font-family:Arial;font-size:6px;font-style:normal;font-weight:normal;text-anchor:end;" transform="rotate(-0, 25.153125, 51.948544)" x="25.153125" y="51.948544">10</text>
     </g>
    </g>
    <g id="ytick_7">
     <g id="line2d_23">
      <path clip-path="url(#p92b4261b63)" d="M 32.153125 28.389809 
L 210.713125 28.389809 
" style="fill:none;stroke:#e5e7eb;stroke-linecap:square;stroke-width:0.6;"/>
     </g>
     <g id="line2d_24">
      <g>
       <use style="stroke:#000000;stroke-width:0.8;" x="32.153125" xlink:href="#mf1a2b28af6" y="28.389809"/>
      </g>
     </g>
     <g id="text_13">
      <text style="font-family:Arial;font-size:6px;font-style:normal;font-weight:normal;text-anchor:end;" transform="rotate(-0, 25.153125, 30.537153)" x="25.153125" y="30.537153">12</text>
     </g>
    </g>
    <g id="text_14">
     <!-- Selective risk, 1 - acc$_{kept}$ (%) -->
     <g transform="translate(12.31 136.07825)rotate(-90)">
      <text>
       <tspan style="font-family:Arial;font-size:7px;font-style:regular;font-weight:regular;" x="0 4.668945 8.562012 10.117188 14.010254 17.510254 19.455078 21.010254 24.510254 28.40332 30.348145 32.679199 34.234375 37.734375 41.234375 43.179199 45.124023 49.01709 50.961914 53.292969 55.237793 59.130859 62.630859 77.273096 79.21792 81.548975 87.773096" y="-0.90625">Selective risk, 1 - acc (%)</tspan>
       <tspan style="font-family:DejaVu Sans;font-size:4.9px;font-style:oblique;font-weight:oblique;" x="66.197852 69.035449 72.050098 75.160449" y="0.2421875">kept</tspan>
      </text>
     </g>
    </g>
   </g>
   <g id="line2d_25">
    <path clip-path="url(#p92b4261b63)" d="M 200.560597 156.367 
L 194.338849 156.362903 
L 43.066636 156.230334 
L 43.066636 156.271362 
" style="fill:none;stroke:#4c78a8;stroke-linecap:square;stroke-opacity:0.7;stroke-width:0.8;"/>
   </g>
   <g id="line2d_26">
    <path clip-path="url(#p92b4261b63)" d="M 200.560597 26.943094 
L 199.295135 27.492026 
L 131.126688 41.79188 
L 131.126688 57.560535 
" style="fill:none;stroke:#f58518;stroke-linecap:square;stroke-opacity:0.7;stroke-width:0.8;"/>
   </g>
   <g id="line2d_27">
    <path clip-path="url(#p92b4261b63)" d="M 200.560597 115.98225 
L 198.856273 116.359335 
L 126.565135 124.95467 
L 126.565135 133.811335 
" style="fill:none;stroke:#54a24b;stroke-linecap:square;stroke-opacity:0.7;stroke-width:0.8;"/>
   </g>
   <g id="patch_3">
    <path d="M 32.153125 163.07025 
L 32.153125 18.92625 
" style="fill:none;stroke:#000000;stroke-linecap:square;stroke-linejoin:miter;stroke-width:0.8;"/>
   </g>
   <g id="patch_4">
    <path d="M 32.153125 163.07025 
L 210.713125 163.07025 
" style="fill:none;stroke:#000000;stroke-linecap:square;stroke-linejoin:miter;stroke-width:0.8;"/>
   </g>
   <g id="text_15">
    <text style="font-family:Arial;font-size:8px;font-style:normal;font-weight:normal;text-anchor:middle;" transform="rotate(-0, 121.433125, 12.92625)" x="121.433125" y="12.92625">Discrete risk-coverage operating points</text>
   </g>
   <g id="legend_1">
    <g id="patch_5">
     <path d="M 36.353125 49.258125 
L 82.57 49.258125 
Q 83.77 49.258125 83.77 48.058125 
L 83.77 23.12625 
Q 83.77 21.92625 82.57 21.92625 
L 36.353125 21.92625 
Q 35.153125 21.92625 35.153125 23.12625 
L 35.153125 48.058125 
Q 35.153125 49.258125 36.353125 49.258125 
z
" style="fill:#ffffff;opacity:0.8;stroke:#cccccc;stroke-linejoin:miter;"/>
    </g>
    <g id="line2d_28">
     <path d="M 37.553125 26.520937 
L 49.553125 26.520937 
" style="fill:none;stroke:#4c78a8;stroke-linecap:square;stroke-opacity:0.7;stroke-width:0.8;"/>
    </g>
    <g id="line2d_29"/>
    <g id="text_16">
     <text style="font-family:Arial;font-size:6px;font-style:normal;font-weight:normal;text-anchor:start;" transform="rotate(-0, 54.353125, 28.620937)" x="54.353125" y="28.620937">Fruit</text>
    </g>
    <g id="line2d_30">
     <path d="M 37.553125 35.008125 
L 49.553125 35.008125 
" style="fill:none;stroke:#f58518;stroke-linecap:square;stroke-opacity:0.7;stroke-width:0.8;"/>
    </g>
    <g id="line2d_31"/>
    <g id="text_17">
     <text style="font-family:Arial;font-size:6px;font-style:normal;font-weight:normal;text-anchor:start;" transform="rotate(-0, 54.353125, 37.108125)" x="54.353125" y="37.108125">Multi-crop</text>
    </g>
    <g id="line2d_32">
     <path d="M 37.553125 43.495312 
L 49.553125 43.495312 
" style="fill:none;stroke:#54a24b;stroke-linecap:square;stroke-opacity:0.7;stroke-width:0.8;"/>
    </g>
    <g id="line2d_33"/>
    <g id="text_18">
     <text style="font-family:Arial;font-size:6px;font-style:normal;font-weight:normal;text-anchor:start;" transform="rotate(-0, 54.353125, 45.595312)" x="54.353125" y="45.595312">Vegetable</text>
    </g>
   </g>
  </g>
 </g>
 <defs>
  <clipPath id="p92b4261b63">
   <rect height="144.144" width="178.56" x="32.153125" y="18.92625"/>
  </clipPath>
 </defs>
</svg>
